<svg width="237" height="86" viewBox="0 0 237 86" fill="none" xmlns="http://www.w3.org/2000/svg">
<path d="M141.117 85.2969V86H124.805L112.477 61.625H102.305V86H87.0703V17.75H113.18C118.43 17.75 122.961 18.5469 126.773 20.1406C130.617 21.7031 133.555 24.0312 135.586 27.125C137.648 30.1875 138.68 33.9375 138.68 38.375C138.68 43.3125 137.648 47.3125 135.586 50.375C133.523 53.4375 130.539 55.8594 126.633 57.6406L141.117 85.2969ZM102.305 49.3438H113.18C116.523 49.3438 119.07 48.5 120.82 46.8125C122.57 45.0938 123.445 42.7344 123.445 39.7344C123.445 36.6719 122.57 34.2969 120.82 32.6094C119.102 30.8906 116.555 30.0312 113.18 30.0312H102.305V49.3438Z" fill="#F3F3F3"/>
<path d="M150.023 86V17.75H165.211V86H150.023Z" fill="#F3F3F3"/>
<path d="M216.258 72.8281H192.445L188.18 86H171.961L197.227 17.75H211.43L236.789 86H220.57L216.258 72.8281ZM212.273 60.5469L204.352 36.2188L196.477 60.5469H212.273Z" fill="#F3F3F3"/>
<path fill-rule="evenodd" clip-rule="evenodd" d="M0.1875 86H20.4609L40.6758 23.7734L49.5234 0.6875H31.7695L0.1875 86ZM53.1694 10.5L44.7725 36.3479L60.9492 86H81.2227L53.1694 10.5Z" fill="#F3F3F3"/>
</svg>
